<svg width="36" height="35" viewBox="0 0 36 35" fill="none" xmlns="http://www.w3.org/2000/svg">
<g opacity="0.88">
<path d="M24.4729 15.8295C24.0438 15.8294 23.6216 15.7242 23.2454 15.5237C22.8691 15.3231 22.5508 15.0337 22.3199 14.6821C22.0891 15.0338 21.7709 15.3233 21.3946 15.5239C21.0184 15.7244 20.5962 15.8296 20.1671 15.8296C19.738 15.8296 19.3158 15.7244 18.9395 15.5239C18.5633 15.3233 18.245 15.0338 18.0142 14.6821C17.7835 15.0338 17.4652 15.3233 17.089 15.5239C16.7127 15.7244 16.2905 15.8296 15.8614 15.8296C15.4323 15.8296 15.0101 15.7244 14.6339 15.5239C14.2576 15.3233 13.9394 15.0338 13.7086 14.6821C13.4113 15.1351 12.9708 15.4821 12.4534 15.6711C11.936 15.86 11.3695 15.8807 10.839 15.7301C10.3084 15.5794 9.84248 15.2655 9.51101 14.8355C9.17955 14.4055 9.00047 13.8826 9.00066 13.3453C9.00066 13.2415 9.04304 13.1421 9.11848 13.0687C9.19392 12.9954 9.29624 12.9542 9.40293 12.9542C9.50961 12.9542 9.61193 12.9954 9.68737 13.0687C9.76281 13.1421 9.80519 13.2415 9.80519 13.3453C9.80254 13.5704 9.84586 13.7938 9.93264 14.0026C10.0194 14.2113 10.148 14.4013 10.3108 14.5614C10.4736 14.7215 10.6675 14.8486 10.8812 14.9354C11.0949 15.0221 11.3242 15.0668 11.5558 15.0668C11.7873 15.0668 12.0166 15.0221 12.2303 14.9354C12.444 14.8486 12.6379 14.7215 12.8007 14.5614C12.9636 14.4013 13.0921 14.2113 13.1789 14.0026C13.2657 13.7938 13.309 13.5704 13.3063 13.3453C13.3063 13.2415 13.3487 13.1421 13.4241 13.0687C13.4996 12.9954 13.6019 12.9542 13.7086 12.9542C13.8153 12.9542 13.9176 12.9954 13.993 13.0687C14.0685 13.1421 14.1109 13.2415 14.1109 13.3453C14.1082 13.5704 14.1515 13.7938 14.2383 14.0026C14.3251 14.2113 14.4536 14.4013 14.6164 14.5614C14.7792 14.7215 14.9731 14.8486 15.1868 14.9354C15.4005 15.0221 15.6298 15.0668 15.8614 15.0668C16.093 15.0668 16.3223 15.0221 16.536 14.9354C16.7497 14.8486 16.9436 14.7215 17.1064 14.5614C17.2692 14.4013 17.3977 14.2113 17.4845 14.0026C17.5713 13.7938 17.6146 13.5704 17.612 13.3453C17.612 13.2415 17.6544 13.1421 17.7298 13.0687C17.8052 12.9954 17.9076 12.9542 18.0142 12.9542C18.1209 12.9542 18.2233 12.9954 18.2987 13.0687C18.3741 13.1421 18.4165 13.2415 18.4165 13.3453C18.4139 13.5704 18.4572 13.7938 18.544 14.0026C18.6307 14.2113 18.7593 14.4013 18.9221 14.5614C19.0849 14.7215 19.2788 14.8486 19.4925 14.9354C19.7062 15.0221 19.9355 15.0668 20.1671 15.0668C20.3987 15.0668 20.628 15.0221 20.8417 14.9354C21.0554 14.8486 21.2492 14.7215 21.4121 14.5614C21.5749 14.4013 21.7034 14.2113 21.7902 14.0026C21.877 13.7938 21.9203 13.5704 21.9176 13.3453C21.9176 13.2415 21.96 13.1421 22.0355 13.0687C22.1109 12.9954 22.2132 12.9542 22.3199 12.9542C22.4266 12.9542 22.5289 12.9954 22.6044 13.0687C22.6798 13.1421 22.7222 13.2415 22.7222 13.3453C22.7195 13.5704 22.7628 13.7938 22.8496 14.0026C22.9364 14.2113 23.0649 14.4013 23.2278 14.5614C23.3906 14.7215 23.5844 14.8486 23.7982 14.9354C24.0119 15.0221 24.2411 15.0668 24.4727 15.0668C24.7043 15.0668 24.9336 15.0221 25.1473 14.9354C25.361 14.8486 25.5549 14.7215 25.7177 14.5614C25.8805 14.4013 26.0091 14.2113 26.0958 14.0026C26.1826 13.7938 26.226 13.5704 26.2233 13.3453C26.2233 13.2415 26.2657 13.1421 26.3411 13.0687C26.4166 12.9954 26.5189 12.9542 26.6256 12.9542C26.7323 12.9542 26.8346 12.9954 26.91 13.0687C26.9855 13.1421 27.0278 13.2415 27.0278 13.3453C27.0271 14.0039 26.7577 14.6353 26.2787 15.101C25.7997 15.5667 25.1503 15.8287 24.4729 15.8295V15.8295Z" fill="#AFD1FD"/>
<path d="M24.4729 20.4435C24.0438 20.4433 23.6216 20.3381 23.2454 20.1376C22.8691 19.937 22.5508 19.6476 22.3199 19.2959C22.0892 19.6477 21.771 19.9372 21.3947 20.1378C21.0184 20.3384 20.5962 20.4435 20.1671 20.4435C19.738 20.4435 19.3158 20.3384 18.9395 20.1378C18.5632 19.9372 18.245 19.6477 18.0143 19.2959C17.7835 19.6477 17.4653 19.9372 17.0891 20.1378C16.7128 20.3384 16.2906 20.4435 15.8614 20.4435C15.4323 20.4435 15.0101 20.3384 14.6338 20.1378C14.2576 19.9372 13.9394 19.6477 13.7086 19.2959C13.4115 19.7491 12.9711 20.0964 12.4536 20.2856C11.9362 20.4748 11.3696 20.4956 10.8389 20.3451C10.3082 20.1945 9.84205 19.8806 9.51048 19.4505C9.1789 19.0205 8.99978 18.4974 9 17.9599C9 17.8562 9.04238 17.7567 9.11782 17.6834C9.19326 17.6101 9.29558 17.5688 9.40227 17.5688C9.50896 17.5688 9.61128 17.6101 9.68672 17.6834C9.76216 17.7567 9.80454 17.8562 9.80454 17.9599C9.80189 18.1851 9.8452 18.4085 9.93199 18.6173C10.0188 18.826 10.1473 19.0159 10.3101 19.1761C10.4729 19.3362 10.6668 19.4633 10.8805 19.5501C11.0942 19.6368 11.3235 19.6815 11.5551 19.6815C11.7867 19.6815 12.016 19.6368 12.2297 19.5501C12.4434 19.4633 12.6373 19.3362 12.8001 19.1761C12.9629 19.0159 13.0914 18.826 13.1782 18.6173C13.265 18.4085 13.3083 18.1851 13.3057 17.9599C13.3057 17.8562 13.348 17.7567 13.4235 17.6834C13.4989 17.6101 13.6012 17.5688 13.7079 17.5688C13.8146 17.5688 13.9169 17.6101 13.9924 17.6834C14.0678 17.7567 14.1102 17.8562 14.1102 17.9599C14.1075 18.1851 14.1509 18.4085 14.2376 18.6173C14.3244 18.826 14.453 19.0159 14.6158 19.1761C14.7786 19.3362 14.9725 19.4633 15.1862 19.5501C15.3999 19.6368 15.6292 19.6815 15.8608 19.6815C16.0923 19.6815 16.3216 19.6368 16.5353 19.5501C16.7491 19.4633 16.9429 19.3362 17.1057 19.1761C17.2686 19.0159 17.3971 18.826 17.4839 18.6173C17.5707 18.4085 17.614 18.1851 17.6113 17.9599C17.6113 17.8562 17.6537 17.7567 17.7291 17.6834C17.8046 17.6101 17.9069 17.5688 18.0136 17.5688C18.1203 17.5688 18.2226 17.6101 18.298 17.6834C18.3735 17.7567 18.4159 17.8562 18.4159 17.9599C18.4132 18.1851 18.4565 18.4085 18.5433 18.6173C18.6301 18.826 18.7586 19.0159 18.9214 19.1761C19.0843 19.3362 19.2781 19.4633 19.4918 19.5501C19.7055 19.6368 19.9348 19.6815 20.1664 19.6815C20.398 19.6815 20.6273 19.6368 20.841 19.5501C21.0547 19.4633 21.2486 19.3362 21.4114 19.1761C21.5742 19.0159 21.7027 18.826 21.7895 18.6173C21.8763 18.4085 21.9196 18.1851 21.917 17.9599C21.917 17.8562 21.9594 17.7567 22.0348 17.6834C22.1102 17.6101 22.2126 17.5688 22.3193 17.5688C22.4259 17.5688 22.5283 17.6101 22.6037 17.6834C22.6791 17.7567 22.7215 17.8562 22.7215 17.9599C22.7189 18.1851 22.7622 18.4085 22.849 18.6173C22.9358 18.826 23.0643 19.0159 23.2271 19.1761C23.3899 19.3362 23.5838 19.4633 23.7975 19.5501C24.0112 19.6368 24.2405 19.6815 24.4721 19.6815C24.7037 19.6815 24.933 19.6368 25.1467 19.5501C25.3604 19.4633 25.5542 19.3362 25.7171 19.1761C25.8799 19.0159 26.0084 18.826 26.0952 18.6173C26.182 18.4085 26.2253 18.1851 26.2226 17.9599C26.2226 17.8562 26.265 17.7567 26.3405 17.6834C26.4159 17.6101 26.5182 17.5688 26.6249 17.5688C26.7316 17.5688 26.8339 17.6101 26.9094 17.6834C26.9848 17.7567 27.0272 17.8562 27.0272 17.9599C27.0263 18.6183 26.7569 19.2495 26.2781 19.715C25.7992 20.1806 25.1501 20.4426 24.4729 20.4435Z" fill="#9AA1EB"/>
<path d="M19.8167 4.50762L18.2979 3.03129C18.2606 2.99495 18.2163 2.96612 18.1675 2.94645C18.1187 2.92678 18.0664 2.91666 18.0136 2.91666C17.9608 2.91666 17.9085 2.92678 17.8597 2.94645C17.8109 2.96612 17.7666 2.99495 17.7292 3.03129L16.2105 4.50762C16.1351 4.58097 16.0927 4.68045 16.0927 4.78418C16.0927 4.88791 16.1351 4.98739 16.2105 5.06074C16.2859 5.13409 16.3883 5.1753 16.495 5.1753C16.6017 5.1753 16.704 5.13409 16.7794 5.06074L17.6113 4.25196V8.15039C17.6113 8.25412 17.6537 8.35359 17.7291 8.42694C17.8046 8.50028 17.9069 8.54149 18.0136 8.54149C18.1203 8.54149 18.2226 8.50028 18.298 8.42694C18.3735 8.35359 18.4158 8.25412 18.4158 8.15039V4.25196L19.2477 5.06074C19.2851 5.09706 19.3294 5.12587 19.3783 5.14552C19.4271 5.16518 19.4794 5.1753 19.5322 5.1753C19.585 5.1753 19.6373 5.16518 19.6862 5.14552C19.735 5.12587 19.7793 5.09706 19.8167 5.06074C19.854 5.02442 19.8837 4.98131 19.9039 4.93385C19.9241 4.8864 19.9345 4.83554 19.9345 4.78418C19.9345 4.73282 19.9241 4.68196 19.9039 4.63451C19.8837 4.58706 19.854 4.54394 19.8167 4.50762V4.50762Z" fill="#BFFDFF"/>
<path d="M11.9128 5.70548C11.8755 5.66913 11.8312 5.64029 11.7823 5.62062C11.7335 5.60095 11.6812 5.59082 11.6284 5.59082C11.5755 5.59082 11.5232 5.60095 11.4744 5.62062C11.4256 5.64029 11.3813 5.66913 11.3439 5.70548L9.82541 7.1818C9.74996 7.25515 9.70758 7.35463 9.70758 7.45836C9.70758 7.5621 9.74996 7.66158 9.82541 7.73492C9.90085 7.80827 10.0032 7.84948 10.1099 7.84948C10.2166 7.84948 10.3189 7.80827 10.3943 7.73492L11.2262 6.92614V10.8246C11.2262 10.9283 11.2686 11.0278 11.344 11.1011C11.4195 11.1745 11.5218 11.2157 11.6285 11.2157C11.7352 11.2157 11.8375 11.1745 11.9129 11.1011C11.9884 11.0278 12.0308 10.9283 12.0308 10.8246V6.92614L12.8627 7.73492C12.9385 7.80615 13.0402 7.84555 13.1456 7.84464C13.2511 7.84373 13.352 7.80258 13.4266 7.73005C13.5011 7.65752 13.5434 7.55942 13.5443 7.45688C13.5452 7.35433 13.5046 7.25555 13.4314 7.1818L11.9128 5.70548Z" fill="#BFFDFF"/>
<path d="M26.2017 7.1818L24.6832 5.70548C24.6458 5.66913 24.6015 5.64029 24.5527 5.62062C24.5039 5.60095 24.4515 5.59082 24.3987 5.59082C24.3459 5.59082 24.2935 5.60095 24.2447 5.62062C24.1959 5.64029 24.1516 5.66913 24.1142 5.70548L22.5957 7.1818C22.5573 7.21787 22.5266 7.26102 22.5055 7.30873C22.4845 7.35645 22.4733 7.40776 22.4729 7.45969C22.4724 7.51162 22.4826 7.56312 22.5028 7.61119C22.523 7.65926 22.5529 7.70293 22.5906 7.73966C22.6284 7.77639 22.6733 7.80544 22.7227 7.82511C22.7722 7.84479 22.8251 7.85469 22.8785 7.85425C22.932 7.85381 22.9847 7.84303 23.0338 7.82254C23.0829 7.80206 23.1273 7.77227 23.1644 7.73492L23.9963 6.92614V10.8246C23.9963 10.9283 24.0387 11.0278 24.1141 11.1011C24.1896 11.1745 24.2919 11.2157 24.3986 11.2157C24.5053 11.2157 24.6076 11.1745 24.683 11.1011C24.7585 11.0278 24.8008 10.9283 24.8008 10.8246V6.92614L25.6327 7.73492C25.7082 7.80827 25.8105 7.84948 25.9172 7.84948C26.0239 7.84948 26.1262 7.80827 26.2017 7.73492C26.2771 7.66158 26.3195 7.5621 26.3195 7.45836C26.3195 7.35463 26.2771 7.25515 26.2017 7.1818V7.1818Z" fill="#BFFDFF"/>
<path d="M15.8443 8.99829C15.7915 8.99826 15.7391 9.00836 15.6903 9.028C15.6415 9.04765 15.5971 9.07645 15.5598 9.11277C15.5224 9.1491 15.4928 9.19222 15.4726 9.23969C15.4524 9.28715 15.442 9.33802 15.442 9.38939V12.6858C15.442 12.7895 15.4844 12.889 15.5598 12.9623C15.6353 13.0356 15.7376 13.0769 15.8443 13.0769C15.951 13.0769 16.0533 13.0356 16.1287 12.9623C16.2042 12.889 16.2466 12.7895 16.2466 12.6858V9.38961C16.2466 9.33823 16.2362 9.28735 16.216 9.23988C16.1958 9.1924 16.1662 9.14926 16.1288 9.11292C16.0915 9.07658 16.0471 9.04775 15.9983 9.02808C15.9495 9.00841 15.8971 8.99829 15.8443 8.99829V8.99829Z" fill="#BFFDFF"/>
<path d="M20.183 8.99829C20.1302 8.99826 20.0779 9.00836 20.0291 9.028C19.9802 9.04765 19.9359 9.07645 19.8985 9.11277C19.8612 9.1491 19.8315 9.19222 19.8113 9.23969C19.7911 9.28715 19.7807 9.33802 19.7808 9.38939V12.6858C19.7808 12.7895 19.8232 12.889 19.8986 12.9623C19.974 13.0356 20.0764 13.0769 20.183 13.0769C20.2897 13.0769 20.3921 13.0356 20.4675 12.9623C20.5429 12.889 20.5853 12.7895 20.5853 12.6858V9.38961C20.5853 9.33823 20.575 9.28735 20.5548 9.23988C20.5346 9.1924 20.5049 9.14926 20.4676 9.11292C20.4302 9.07658 20.3859 9.04775 20.337 9.02808C20.2882 9.00841 20.2359 8.99829 20.183 8.99829V8.99829Z" fill="#BFFDFF"/>
</g>
</svg>
